<svg width="33" height="33" viewBox="0 0 33 33" fill="none" xmlns="http://www.w3.org/2000/svg">
<g id="Icon / bell">
<path id="Vector" d="M24.75 11C24.75 8.81196 23.8808 6.71354 22.3336 5.16637C20.7865 3.61919 18.688 2.75 16.5 2.75C14.312 2.75 12.2135 3.61919 10.6664 5.16637C9.11919 6.71354 8.25 8.81196 8.25 11C8.25 20.625 4.125 23.375 4.125 23.375H28.875C28.875 23.375 24.75 20.625 24.75 11Z" stroke="black" stroke-width="1.5" stroke-linecap="round" stroke-linejoin="round"/>
<path id="Vector_2" d="M18.8787 28.875C18.637 29.2917 18.29 29.6376 17.8726 29.8781C17.4551 30.1186 16.9818 30.2451 16.5 30.2451C16.0182 30.2451 15.5449 30.1186 15.1274 29.8781C14.71 29.6376 14.363 29.2917 14.1212 28.875" stroke="black" stroke-width="1.5" stroke-linecap="round" stroke-linejoin="round"/>
</g>
</svg>
