<svg width="80" height="80" viewBox="0 0 80 80" fill="none" xmlns="http://www.w3.org/2000/svg">
<g id="Icon ?">
<path id="Vector" d="M40.0001 73.3333C58.4096 73.3333 73.3334 58.4095 73.3334 40C73.3334 21.5905 58.4096 6.66663 40.0001 6.66663C21.5906 6.66663 6.66675 21.5905 6.66675 40C6.66675 58.4095 21.5906 73.3333 40.0001 73.3333Z" stroke="#0ACF83" stroke-width="1.5" stroke-linecap="round" stroke-linejoin="round"/>
<path id="Vector_2" d="M30.3 29.9999C31.0837 27.7722 32.6306 25.8936 34.6666 24.6971C36.7026 23.5005 39.0964 23.0631 41.424 23.4623C43.7516 23.8616 45.8628 25.0717 47.3836 26.8784C48.9045 28.6851 49.7369 30.9717 49.7334 33.3333C49.7334 39.9999 39.7334 43.3333 39.7334 43.3333" stroke="#0ACF83" stroke-width="1.5" stroke-linecap="round" stroke-linejoin="round"/>
<path id="Vector_3" d="M40 56.6666H40.0333" stroke="#0ACF83" stroke-width="3" stroke-linecap="round" stroke-linejoin="round"/>
</g>
</svg>
