<svg width="123" height="50" viewBox="0 0 123 50" fill="none" xmlns="http://www.w3.org/2000/svg">
<g clip-path="url(#clip0_1615_1278)">
<rect width="123" height="50" rx="9.4" fill="white"/>
<rect width="123" height="50" rx="9.4" fill="white"/>
<path fill-rule="evenodd" clip-rule="evenodd" d="M61.5 12C68.4037 12 74 17.7374 74 24.8161C74 30.4774 70.4225 35.2799 65.4587 36.9762C64.825 37.1024 64.6 36.7022 64.6 36.3609C64.6 35.9384 64.615 34.5585 64.615 32.8435C64.615 31.6485 64.215 30.8685 63.7663 30.471C66.55 30.1535 69.475 29.0697 69.475 24.1472C69.475 22.7472 68.99 21.6048 68.1875 20.7073C68.3175 20.3835 68.7462 19.0799 68.065 17.3149C68.065 17.3149 67.0175 16.9715 64.6312 18.629C63.6325 18.3453 62.5625 18.2025 61.5 18.1975C60.4375 18.2025 59.3688 18.3453 58.3713 18.629C55.9825 16.9715 54.9325 17.3149 54.9325 17.3149C54.2538 19.0799 54.6825 20.3835 54.8113 20.7073C54.0125 21.6048 53.5238 22.7472 53.5238 24.1472C53.5238 29.0572 56.4425 30.1577 59.2188 30.4814C58.8613 30.8014 58.5375 31.3659 58.425 32.1947C57.7125 32.5222 55.9025 33.089 54.7875 31.1302C54.7875 31.1302 54.1262 29.8988 52.8712 29.8088C52.8712 29.8088 51.6525 29.7926 52.7862 30.5876C52.7862 30.5876 53.605 30.9814 54.1737 32.4626C54.1737 32.4626 54.9075 34.7501 58.385 33.9751C58.3913 35.0463 58.4025 36.0559 58.4025 36.3609C58.4025 36.6997 58.1725 37.0961 57.5487 36.9774C52.5812 35.2836 49 30.4786 49 24.8161C49 17.7374 54.5975 12 61.5 12Z" fill="black"/>
</g>
<defs>
<clipPath id="clip0_1615_1278">
<rect width="123" height="50" rx="9.4" fill="white"/>
</clipPath>
</defs>
</svg>
