<svg width="123" height="50" viewBox="0 0 123 50" fill="none" xmlns="http://www.w3.org/2000/svg">
<g clip-path="url(#clip0_1609_1471)">
<rect width="123" height="50" rx="9.4" fill="white"/>
<rect width="123" height="50" rx="9.4" fill="white"/>
<g clip-path="url(#clip1_1609_1471)">
<path d="M55.0405 27.1078L54.1703 30.3564L50.9897 30.4237C50.0392 28.6607 49.5 26.6435 49.5 24.5C49.5 22.4272 50.0041 20.4725 50.8977 18.7513H50.8983L53.73 19.2705L54.9704 22.0851C54.7108 22.842 54.5693 23.6545 54.5693 24.5C54.5694 25.4176 54.7356 26.2967 55.0405 27.1078Z" fill="#FBBB00"/>
<path d="M74.2817 22.1648C74.4252 22.9209 74.5001 23.7019 74.5001 24.5C74.5001 25.3949 74.406 26.2678 74.2268 27.1099C73.6183 29.9752 72.0283 32.4773 69.8257 34.2479L69.825 34.2472L66.2584 34.0652L65.7536 30.9141C67.2151 30.057 68.3573 28.7156 68.959 27.1099H62.2749V22.1648H69.0565H74.2817Z" fill="#518EF8"/>
<path d="M69.8247 34.2473L69.8253 34.248C67.6832 35.9698 64.962 37 61.9998 37C57.2395 37 53.1008 34.3394 50.9895 30.4238L55.0403 27.1079C56.0959 29.9252 58.8137 31.9307 61.9998 31.9307C63.3693 31.9307 64.6523 31.5605 65.7532 30.9142L69.8247 34.2473Z" fill="#28B446"/>
<path d="M69.9788 14.8777L65.9293 18.193C64.7899 17.4808 63.443 17.0693 62 17.0693C58.7418 17.0693 55.9732 19.1668 54.9705 22.0852L50.8984 18.7514H50.8977C52.9781 14.7404 57.169 12 62 12C65.033 12 67.8139 13.0804 69.9788 14.8777Z" fill="#F14336"/>
</g>
</g>
<defs>
<clipPath id="clip0_1609_1471">
<rect width="123" height="50" rx="9.4" fill="white"/>
</clipPath>
<clipPath id="clip1_1609_1471">
<rect width="25" height="25" fill="white" transform="translate(49.5 12)"/>
</clipPath>
</defs>
</svg>
