<svg width="25" height="24" viewBox="0 0 25 24" fill="none" xmlns="http://www.w3.org/2000/svg">
<path d="M12.111 -0.155579C5.49516 -0.155579 0.110992 5.28085 0.110992 11.9032V22.999C0.110992 23.4569 0.498089 23.8444 0.955567 23.8444H5.3192C5.77668 23.8444 6.16378 23.4569 6.16378 22.999V12.8542C6.16378 12.3963 5.77668 12.0088 5.3192 12.0088H1.80014V11.9032C1.80014 6.23193 6.41012 1.58223 12.111 1.58223C17.8119 1.58223 22.4218 6.1967 22.4218 11.9032V12.0088H18.9028C18.4453 12.0088 18.0582 12.3963 18.0582 12.8542V22.999C18.0582 23.4569 18.4453 23.8444 18.9028 23.8444H23.2664C23.7239 23.8444 24.111 23.4569 24.111 22.999V11.9032C24.111 5.28085 18.7268 -0.155579 12.111 -0.155579ZM4.47463 13.6996V22.1536H1.80014V13.6996H4.47463ZM22.4218 22.1536H19.7474V13.6996H22.4218V22.1536Z" fill="black"/>
</svg>
