<svg width="33" height="33" viewBox="0 0 33 33" fill="none" xmlns="http://www.w3.org/2000/svg">
<g id="Icon / help-circle">
<path id="Vector" d="M16.5 30.25C24.0939 30.25 30.25 24.0939 30.25 16.5C30.25 8.90608 24.0939 2.75 16.5 2.75C8.90608 2.75 2.75 8.90608 2.75 16.5C2.75 24.0939 8.90608 30.25 16.5 30.25Z" stroke="black" stroke-width="1.5" stroke-linecap="round" stroke-linejoin="round"/>
<path id="Vector_2" d="M12.4988 12.3751C12.822 11.4561 13.4601 10.6812 14.3 10.1876C15.1398 9.69402 16.1273 9.51359 17.0874 9.67828C18.0475 9.84297 18.9184 10.3421 19.5458 11.0874C20.1731 11.8327 20.5165 12.7759 20.515 13.7501C20.515 16.5001 16.39 17.8751 16.39 17.8751" stroke="black" stroke-width="1.5" stroke-linecap="round" stroke-linejoin="round"/>
<path id="Vector_3" d="M16.5 23.375H16.5138" stroke="black" stroke-width="1.5" stroke-linecap="round" stroke-linejoin="round"/>
</g>
</svg>
