<svg width="48" height="48" viewBox="0 0 48 48" fill="none" xmlns="http://www.w3.org/2000/svg">
<g id="Logo svg">
<rect id="Rectangle 1" y="0.05723" width="47.0485" height="47.0485" rx="5.95238" fill="#0ACF83"/>
<g id="Mask Group">
<mask id="mask0_1526_932" style="mask-type:alpha" maskUnits="userSpaceOnUse" x="0" y="0" width="48" height="48">
<rect id="Rectangle 2" y="-4.00543e-05" width="47.0485" height="47.0485" rx="5.95238" fill="#0ACF83"/>
</mask>
<g mask="url(#mask0_1526_932)">
<g id="Union">
<path d="M30.382 22.404C31.3006 25.8323 29.2622 29.3573 25.8291 30.2772C22.3959 31.1971 18.8681 29.1636 17.9495 25.7353C17.0309 22.3069 19.0693 18.7819 22.5024 17.862C25.9356 16.9421 29.4634 18.9756 30.382 22.404Z" fill="white"/>
<path fill-rule="evenodd" clip-rule="evenodd" d="M-0.536055 3.52641C-1.40812 4.39742 -1.40861 5.80912 -0.537155 6.67952L10.4046 17.6081C8.92522 20.7435 8.50593 24.3977 9.47293 28.0066C11.6442 36.11 19.9827 40.9165 28.0974 38.7421C36.2121 36.5678 41.0302 28.2361 38.8589 20.1327C36.6876 12.0293 28.3491 7.22282 20.2344 9.39716C19.0127 9.72452 17.8657 10.1915 16.806 10.7762L6.08362 0.0667436C5.21216 -0.80366 3.79876 -0.803169 2.92669 0.0678436L-0.536055 3.52641ZM26.4341 32.5347C31.1157 31.2803 33.8953 26.4735 32.6427 21.7984C31.39 17.1234 26.5793 14.3505 21.8978 15.6049C17.2162 16.8593 14.4365 21.6661 15.6892 26.3411C16.9419 31.0161 21.7525 33.7891 26.4341 32.5347Z" fill="white"/>
</g>
</g>
</g>
</g>
</svg>
