<svg width="33" height="33" viewBox="0 0 33 33" fill="none" xmlns="http://www.w3.org/2000/svg">
<path d="M28.655 6.33882C27.9527 5.6362 27.1189 5.07883 26.2011 4.69856C25.2834 4.31829 24.2997 4.12256 23.3063 4.12256C22.3128 4.12256 21.3292 4.31829 20.4114 4.69856C19.4936 5.07883 18.6598 5.6362 17.9575 6.33882L16.5 7.79632L15.0425 6.33882C13.6239 4.92024 11.6999 4.12329 9.69376 4.12329C7.68759 4.12329 5.76359 4.92024 4.34501 6.33882C2.92643 7.7574 2.12949 9.6814 2.12949 11.6876C2.12949 13.6937 2.92643 15.6177 4.34501 17.0363L5.80251 18.4938L16.5 29.1913L27.1975 18.4938L28.655 17.0363C29.3576 16.334 29.915 15.5002 30.2953 14.5824C30.6755 13.6647 30.8713 12.681 30.8713 11.6876C30.8713 10.6941 30.6755 9.71046 30.2953 8.79271C29.915 7.87495 29.3576 7.04111 28.655 6.33882V6.33882Z" stroke="black" stroke-width="1.5" stroke-linecap="round" stroke-linejoin="round"/>
<path d="M18.1667 10.1667L14 13.5001H10.6667V18.5001H14L18.1667 21.8334V10.1667Z" stroke="black" stroke-width="1.5" stroke-linecap="round" stroke-linejoin="round"/>
<path d="M21.95 13.05C22.7311 13.8314 23.17 14.891 23.17 15.9959C23.17 17.1007 22.7311 18.1603 21.95 18.9417" stroke="black" stroke-width="1.5" stroke-linecap="round" stroke-linejoin="round"/>
</svg>
