<svg width="21" height="21" viewBox="0 0 21 21" fill="none" xmlns="http://www.w3.org/2000/svg">
<g id="Group 1">
<rect id="Rectangle 1" y="0.380981" width="20.2381" height="20.2381" rx="5.95238" fill="#0ACF83"/>
<g id="Mask Group">
<mask id="mask0_1493_113" style="mask-type:alpha" maskUnits="userSpaceOnUse" x="0" y="0" width="21" height="21">
<rect id="Rectangle 2" y="0.380981" width="20.2381" height="20.2381" rx="5.95238" fill="#0ACF83"/>
</mask>
<g mask="url(#mask0_1493_113)">
<g id="Union">
<path d="M13.0689 10.0182C13.4641 11.4929 12.5873 13.0092 11.1105 13.4049C9.63368 13.8006 8.11618 12.9259 7.72103 11.4512C7.32588 9.97645 8.20272 8.46017 9.6795 8.06447C11.1563 7.66876 12.6738 8.54348 13.0689 10.0182Z" fill="white"/>
<path fill-rule="evenodd" clip-rule="evenodd" d="M-0.230604 1.89794C-0.605726 2.27261 -0.605938 2.87986 -0.231077 3.25427L4.47558 7.95523C3.83921 9.30395 3.65884 10.8758 4.0748 12.4282C5.0088 15.9139 8.59562 17.9814 12.0862 17.0461C15.5768 16.1108 17.6493 12.5269 16.7153 9.0412C15.7813 5.55549 12.1945 3.48797 8.70391 4.42327C8.17838 4.56409 7.68499 4.76494 7.22916 5.01646L2.61688 0.409754C2.24202 0.0353459 1.63403 0.0355576 1.25891 0.410227L-0.230604 1.89794ZM11.3707 14.376C13.3845 13.8364 14.5802 11.7687 14.0414 9.75774C13.5025 7.74675 11.4332 6.55396 9.41941 7.09355C7.40561 7.63314 6.20993 9.7008 6.74877 11.7118C7.28761 13.7228 9.35693 14.9156 11.3707 14.376Z" fill="white"/>
</g>
</g>
</g>
</g>
</svg>
