<svg width="20" height="20" viewBox="0 0 20 20" fill="none" xmlns="http://www.w3.org/2000/svg">
<g id="Icon / more-vertical">
<path id="Vector" d="M10 10.8333C10.4603 10.8333 10.8334 10.4602 10.8334 10C10.8334 9.53977 10.4603 9.16667 10 9.16667C9.53978 9.16667 9.16669 9.53977 9.16669 10C9.16669 10.4602 9.53978 10.8333 10 10.8333Z" stroke="#7F7F7F" stroke-width="1.5" stroke-linecap="round" stroke-linejoin="round"/>
<path id="Vector_2" d="M10 4.99999C10.4603 4.99999 10.8334 4.6269 10.8334 4.16666C10.8334 3.70642 10.4603 3.33333 10 3.33333C9.53978 3.33333 9.16669 3.70642 9.16669 4.16666C9.16669 4.6269 9.53978 4.99999 10 4.99999Z" stroke="#7F7F7F" stroke-width="1.5" stroke-linecap="round" stroke-linejoin="round"/>
<path id="Vector_3" d="M10 16.6667C10.4603 16.6667 10.8334 16.2936 10.8334 15.8333C10.8334 15.3731 10.4603 15 10 15C9.53978 15 9.16669 15.3731 9.16669 15.8333C9.16669 16.2936 9.53978 16.6667 10 16.6667Z" stroke="#7F7F7F" stroke-width="1.5" stroke-linecap="round" stroke-linejoin="round"/>
</g>
</svg>
